<svg width="48" height="48" viewBox="0 0 48 48" fill="none" xmlns="http://www.w3.org/2000/svg">
<circle cx="24" cy="24" r="24" fill="#3D8168"/>
<path d="M33.6414 13.234H24.6414C24.0234 13.234 23.1579 13.5925 22.7214 14.029L11.5629 25.1875C11.3525 25.3989 11.2344 25.685 11.2344 25.9833C11.2344 26.2815 11.3525 26.5676 11.5629 26.779L21.2214 36.4375C21.4328 36.6479 21.7189 36.766 22.0171 36.766C22.3154 36.766 22.6015 36.6479 22.8129 36.4375L33.9714 25.279C34.4094 24.841 34.7664 23.977 34.7664 23.359V14.359C34.7652 14.061 34.6463 13.7755 34.4356 13.5648C34.2249 13.3541 33.9394 13.2352 33.6414 13.234ZM28.0164 22.234C27.7208 22.2339 27.4282 22.1756 27.1551 22.0624C26.8821 21.9492 26.634 21.7833 26.4251 21.5742C26.2162 21.3652 26.0505 21.117 25.9374 20.8439C25.8244 20.5708 25.7663 20.2781 25.7664 19.9825C25.7665 19.6869 25.8248 19.3943 25.938 19.1212C26.0512 18.8482 26.2171 18.6001 26.4262 18.3912C26.6352 18.1823 26.8834 18.0166 27.1565 17.9035C27.4296 17.7905 27.7223 17.7324 28.0179 17.7325C28.6148 17.7327 29.1872 17.97 29.6092 18.3923C30.0312 18.8145 30.2681 19.3871 30.2679 19.984C30.2677 20.5809 30.0304 21.1534 29.6081 21.5753C29.1859 21.9973 28.6133 22.2342 28.0164 22.234Z" fill="white"/>
</svg>
